<svg width="10" height="16" viewBox="0 0 10 16" fill="none" xmlns="http://www.w3.org/2000/svg">
<path fill-rule="evenodd" clip-rule="evenodd" d="M1.64604 1.64599C1.69248 1.59943 1.74766 1.56249 1.80841 1.53728C1.86915 1.51207 1.93427 1.4991 2.00004 1.4991C2.06581 1.4991 2.13093 1.51207 2.19167 1.53728C2.25242 1.56249 2.30759 1.59943 2.35404 1.64599L8.35404 7.64599C8.4006 7.69244 8.43754 7.74761 8.46275 7.80836C8.48796 7.86911 8.50093 7.93423 8.50093 7.99999C8.50093 8.06576 8.48796 8.13088 8.46275 8.19163C8.43754 8.25237 8.4006 8.30755 8.35404 8.35399L2.35404 14.354C2.26015 14.4479 2.13281 14.5006 2.00004 14.5006C1.86726 14.5006 1.73993 14.4479 1.64604 14.354C1.55215 14.2601 1.49941 14.1328 1.49941 14C1.49941 13.8672 1.55215 13.7399 1.64604 13.646L7.29304 7.99999L1.64604 2.35399C1.59948 2.30755 1.56253 2.25237 1.53733 2.19163C1.51212 2.13088 1.49915 2.06576 1.49915 1.99999C1.49915 1.93423 1.51212 1.86911 1.53733 1.80836C1.56253 1.74761 1.59948 1.69244 1.64604 1.64599Z" fill="white" stroke="white" stroke-width="1.5"/>
</svg>
