<svg width="25" height="21" viewBox="0 0 25 21" fill="none" xmlns="http://www.w3.org/2000/svg">
<path d="M24.3854 3.21749C23.5131 3.61401 22.5728 3.87459 21.5985 3.99921C22.5954 3.39876 23.3658 2.44711 23.7283 1.30286C22.788 1.86932 21.7457 2.26584 20.6468 2.49243C19.7518 1.51812 18.4943 0.95166 17.0668 0.95166C14.4044 0.95166 12.2292 3.12686 12.2292 5.81187C12.2292 6.19706 12.2746 6.57093 12.3539 6.92213C8.32067 6.71821 4.72933 4.78092 2.33887 1.84666C1.91969 2.5604 1.68178 3.39876 1.68178 4.28244C1.68178 5.97048 2.53147 7.46593 3.84565 8.31562C3.04128 8.31562 2.29356 8.08904 1.63646 7.74916V7.78315C1.63646 10.1396 3.31318 12.1109 5.5337 12.5527C4.82078 12.7478 4.07234 12.775 3.34717 12.632C3.65488 13.5978 4.25751 14.4429 5.07035 15.0485C5.8832 15.654 6.86538 15.9896 7.87884 16.0081C6.16091 17.3681 4.03145 18.1032 1.84039 18.0927C1.4552 18.0927 1.07001 18.07 0.684814 18.0247C2.83736 19.4069 5.39775 20.2112 8.13941 20.2112C17.0668 20.2112 21.9723 12.802 21.9723 6.37833C21.9723 6.16308 21.9723 5.95915 21.961 5.7439C22.9126 5.06415 23.7283 4.20313 24.3854 3.21749Z" fill="white"/>
</svg>
