<svg width="24" height="16" viewBox="0 0 24 16" fill="none" xmlns="http://www.w3.org/2000/svg">
<path d="M9.63926 11.4138L15.5191 8.01501L9.63926 4.61626V11.4138ZM22.7358 2.54302C22.8831 3.07549 22.985 3.78923 23.053 4.69557C23.1323 5.6019 23.1663 6.38361 23.1663 7.06336L23.2343 8.01501C23.2343 10.4961 23.053 12.3201 22.7358 13.487C22.4525 14.5066 21.7955 15.1637 20.7758 15.4469C20.2434 15.5942 19.2691 15.6962 17.7736 15.7642C16.3008 15.8435 14.9526 15.8775 13.7064 15.8775L11.9051 15.9454C7.15817 15.9454 4.20126 15.7642 3.03436 15.4469C2.01473 15.1637 1.35764 14.5066 1.07441 13.487C0.927132 12.9545 0.82517 12.2408 0.757195 11.3345C0.67789 10.4281 0.643903 9.64641 0.643903 8.96666L0.575928 8.01501C0.575928 5.53392 0.757194 3.70993 1.07441 2.54302C1.35764 1.5234 2.01473 0.866307 3.03436 0.583078C3.56683 0.435799 4.54114 0.333836 6.03659 0.265861C7.50938 0.186557 8.85755 0.15257 10.1038 0.15257L11.9051 0.0845947C16.652 0.0845947 19.6089 0.265861 20.7758 0.583078C21.7955 0.866307 22.4525 1.5234 22.7358 2.54302Z" fill="white"/>
</svg>
